<svg width="342" height="113" viewBox="0 0 342 113" fill="none" xmlns="http://www.w3.org/2000/svg">
<g filter="url(#filter0_d_187_72)">
<path d="M283.066 44.2002C287.063 44.2002 290.573 44.9682 293.596 46.5042C296.618 48.0082 298.974 50.1202 300.664 52.8402C302.354 55.5282 303.199 58.6482 303.199 62.2002C303.199 65.7522 302.354 68.8882 300.664 71.6082C298.974 74.2962 296.618 76.4082 293.596 77.9442C290.573 79.4482 287.063 80.2002 283.066 80.2002H268.295V44.2002H283.066ZM271.025 80.0082L268.782 77.8482H283.066C286.478 77.8482 289.485 77.1922 292.084 75.8802C294.684 74.5362 296.716 72.6962 298.178 70.3602C299.641 67.9922 300.372 65.2722 300.372 62.2002C300.372 59.0962 299.641 56.3762 298.178 54.0402C296.716 51.7042 294.684 49.8802 292.084 48.5682C289.485 47.2242 286.478 46.5522 283.066 46.5522H268.782L271.025 44.3922V80.0082Z" fill="white"/>
<path d="M249.283 44.2002H252.013V80.2002H249.283V44.2002Z" fill="white"/>
<path d="M232.953 44.2002V80.2002H230.32V44.4402H231.88L211.942 80.2002H209.114L189.176 44.4402H190.736V80.2002H188.104V44.2002H192.101L211.796 79.8642H209.309L228.955 44.2002H232.953Z" fill="white"/>
<path d="M172.503 44.2002L190.979 80.2002H187.907L169.968 44.8722H172.356L154.368 80.2002H151.297L169.773 44.2002H172.503Z" fill="white"/>
<path d="M153.259 44.2002V80.2002H150.627V44.4402H152.187L132.248 80.2002H129.421L109.483 44.4402H111.043V80.2002H108.41V44.2002H112.408L132.102 79.8642H129.616L149.262 44.2002H153.259Z" fill="white"/>
<path d="M89.3848 44.2002H92.1147V80.2002H89.3848V44.2002Z" fill="white"/>
<path d="M58.3325 44.2002C54.3351 44.2002 50.8252 44.9682 47.8027 46.5042C44.7803 48.0082 42.4241 50.1202 40.7341 52.8402C39.0441 55.5282 38.1992 58.6482 38.1992 62.2002C38.1992 65.7522 39.0441 68.8882 40.7341 71.6082C42.4241 74.2962 44.7803 76.4082 47.8027 77.9442C50.8252 79.4482 54.3351 80.2002 58.3325 80.2002H73.1035V44.2002H58.3325ZM70.3736 80.0082L72.616 77.8482H58.3325C54.9201 77.8482 51.9139 77.1922 49.314 75.8802C46.714 74.5362 44.6828 72.6962 43.2203 70.3602C41.7578 67.9922 41.0266 65.2722 41.0266 62.2002C41.0266 59.0962 41.7578 56.3762 43.2203 54.0402C44.6828 51.7042 46.714 49.8802 49.314 48.5682C51.9139 47.2242 54.9201 46.5522 58.3325 46.5522H72.616L70.3736 44.3922V80.0082Z" fill="white"/>
</g>
<defs>
<filter id="filter0_d_187_72" x="-0.000782013" y="0.00019455" width="341.4" height="112.4" filterUnits="userSpaceOnUse" color-interpolation-filters="sRGB">
<feFlood flood-opacity="0" result="BackgroundImageFix"/>
<feColorMatrix in="SourceAlpha" type="matrix" values="0 0 0 0 0 0 0 0 0 0 0 0 0 0 0 0 0 0 127 0" result="hardAlpha"/>
<feOffset dy="-6"/>
<feGaussianBlur stdDeviation="19.1"/>
<feComposite in2="hardAlpha" operator="out"/>
<feColorMatrix type="matrix" values="0 0 0 0 0.262745 0 0 0 0 0.14902 0 0 0 0 0.0588235 0 0 0 1 0"/>
<feBlend mode="normal" in2="BackgroundImageFix" result="effect1_dropShadow_187_72"/>
<feBlend mode="normal" in="SourceGraphic" in2="effect1_dropShadow_187_72" result="shape"/>
</filter>
</defs>
</svg>
